<?xml version="1.0" encoding="UTF-8"?>
<svg width="268px" height="280px" viewBox="0 0 268 280" version="1.1" xmlns="http://www.w3.org/2000/svg" xmlns:xlink="http://www.w3.org/1999/xlink">
    <!-- Generator: Sketch 49 (51002) - http://www.bohemiancoding.com/sketch -->
    <defs>
        <polygon id="path-1" points="0.06 0.721 267.527 0.721 267.527 227.216 0.06 227.216"></polygon>
        <polygon id="path-3" points="0.494 0.495 60.429989 0.495 60.429989 26.94 0.494 26.94"></polygon>
        <polygon id="path-5" points="0.826 0.495 34.8399393 0.495 34.8399393 26.94 0.826 26.94"></polygon>
    </defs>
    <g id="Artboard" stroke="none" stroke-width="1" fill="none" fill-rule="evenodd">
        <g id="AK_logo_black">
            <g id="Group-3">
                <mask id="mask-2" fill="white">
                    <use xlink:href="#path-1"></use>
                </mask>
                <g id="Clip-2"></g>
                <path d="M53.363,215.389 C39.29,215.389 12.677,209.178 12.677,185.68 C12.677,165.94 27.422,156.437 63.559,152.879 C82.211,151.301 103.269,149.521 115.184,139.635 L115.681,187.549 C98.535,206.283 78.148,215.389 53.363,215.389 Z M193.398,127.512 L246.047,76.82 L229.084,76.82 L157.649,146.399 L157.649,0.721 L145.734,12.267 L145.734,158.004 L127.326,175.934 L127,118.382 C127,90.556 105.908,74.597 69.132,74.597 C36.615,74.597 14.197,89.67 7.624,115.959 L7.406,116.835 L19.527,116.835 L19.683,116.343 C25.804,96.868 43.365,86.142 69.132,86.142 C109.188,86.142 115.168,106.342 115.168,118.382 C115.168,135.516 94.237,138.818 62.31,141.897 C31.499,144.698 0,152.124 0,185.965 C0,214.307 27.662,227.216 53.363,227.216 C77.349,227.216 96.12,220.022 115.842,203.203 L116.064,224.839 L127.602,224.839 L127.417,191.841 L145.734,174.036 L145.734,224.839 L157.649,224.839 L157.649,162.457 L184.924,135.942 L252.091,222.898 L253.612,224.841 L267.527,224.841 L193.398,127.512 Z" id="Fill-1" fill="#1A1919" mask="url(#mask-2)"></path>
            </g>
            <path d="M142.695,250.016 C141.915,250.016 141.283,250.649 141.283,251.429 C141.283,252.206 141.915,252.839 142.695,252.839 C143.473,252.839 144.108,252.206 144.108,251.429 C144.108,250.649 143.473,250.016 142.695,250.016" id="Fill-4" fill="#1A1919"></path>
            <path d="M22.531,264.51 L22.531,267.865 C22.531,271.386 18.89,272.963 15.281,272.963 C13.659,272.963 10.593,272.262 10.593,269.609 C10.593,267.72 11.605,266.363 16.538,265.874 C18.64,265.697 20.992,265.5 22.531,264.51 Z M24.467,271.386 L24.467,261.441 C24.467,257.903 21.816,255.876 17.194,255.876 C13.123,255.876 10.314,257.775 9.487,261.083 L9.383,261.499 L11.357,261.499 L11.431,261.267 C12.151,258.982 14.143,257.775 17.194,257.775 C19.629,257.775 22.531,258.411 22.531,261.441 C22.531,263.156 20.622,263.631 16.345,264.044 C12.717,264.372 8.554,265.307 8.554,269.642 C8.554,273.255 12.041,274.898 15.281,274.898 C18.356,274.898 20.945,273.951 22.547,272.265 C22.598,273.105 22.761,273.806 23.042,274.4 L23.134,274.59 L25.141,274.59 L24.956,274.131 C24.69,273.468 24.467,272.212 24.467,271.386 Z" id="Fill-5" fill="#1A1919"></path>
            <polyline id="Fill-6" fill="#1A1919" points="44.326 256.322 41.548 256.322 31.699 265.844 31.699 248.495 29.763 248.495 29.763 274.59 31.699 274.59 31.699 268.52 35.852 264.52 42.632 274.59 44.98 274.59 37.267 263.126 44.326 256.322"></polyline>
            <g id="Group-11" transform="translate(46.000000, 248.000000)">
                <mask id="mask-4" fill="white">
                    <use xlink:href="#path-3"></use>
                </mask>
                <g id="Clip-8"></g>
                <path d="M14.472,16.513 L14.472,19.865 C14.472,23.386 10.83,24.963 7.222,24.963 C5.6,24.963 2.535,24.262 2.535,21.609 C2.535,19.72 3.546,18.363 8.479,17.874 C10.583,17.697 12.933,17.5 14.472,16.513 Z M16.408,23.386 L16.408,13.441 C16.408,9.903 13.757,7.876 9.135,7.876 C5.064,7.876 2.256,9.775 1.428,13.083 L1.324,13.499 L3.298,13.499 L3.372,13.267 C4.092,10.982 6.084,9.775 9.135,9.775 C11.57,9.775 14.472,10.411 14.472,13.441 C14.472,15.156 12.563,15.631 8.286,16.044 C4.658,16.372 0.494,17.307 0.494,21.642 C0.494,25.255 3.982,26.898 7.222,26.898 C10.298,26.898 12.887,25.951 14.488,24.265 C14.539,25.105 14.702,25.806 14.983,26.4 L15.076,26.59 L17.082,26.59 L16.897,26.131 C16.631,25.468 16.408,24.212 16.408,23.386 Z" id="Fill-7" fill="#1A1919" mask="url(#mask-4)"></path>
                <path d="M29.284,25.065 C25.324,25.065 22.102,21.674 22.102,17.507 C22.102,13.284 25.324,9.843 29.284,9.843 C33.245,9.843 36.467,13.284 36.467,17.507 C36.467,21.674 33.245,25.065 29.284,25.065 Z M36.467,11.712 C34.812,9.319 32.156,7.876 29.284,7.876 C24.257,7.876 20.166,12.195 20.166,17.507 C20.166,22.744 24.257,26.999 29.284,26.999 C32.158,26.999 34.816,25.58 36.467,23.219 L36.467,26.59 L38.403,26.59 L38.403,0.495 L36.467,0.495 L36.467,11.712 Z" id="Fill-9" fill="#1A1919" mask="url(#mask-4)"></path>
                <path d="M44.329,15.841 C45.036,12.342 47.916,9.843 51.309,9.843 C54.69,9.843 57.582,12.342 58.322,15.841 L44.329,15.841 Z M51.309,7.876 C46.283,7.876 42.192,12.195 42.192,17.507 C42.192,22.832 46.287,26.999 51.516,26.999 C55.733,26.999 58.758,24.832 60.037,20.894 L60.18,20.454 L58.15,20.454 L58.07,20.674 C56.997,23.586 54.792,25.065 51.516,25.065 C47.447,25.065 44.327,21.953 44.137,17.773 L60.424,17.773 L60.429,17.445 C60.467,14.969 59.408,12.391 57.593,10.552 C55.894,8.824 53.662,7.876 51.309,7.876 Z" id="Fill-10" fill="#1A1919" mask="url(#mask-4)"></path>
            </g>
            <path d="M129.317,255.876 C126.666,255.876 124.489,257.148 123.361,259.319 C122.169,257.178 119.878,255.876 117.219,255.876 C115.178,255.876 113.384,256.653 112.156,258.04 L112.156,256.322 L110.22,256.322 L110.22,274.59 L112.156,274.59 L112.156,262.91 C112.156,259.975 114.285,257.843 117.219,257.843 C120.173,257.843 122.316,259.975 122.316,262.91 L122.316,274.59 L124.252,274.59 L124.252,262.91 C124.252,259.975 126.382,257.843 129.317,257.843 C132.272,257.843 134.414,259.975 134.414,262.91 L134.414,274.59 L136.351,274.59 L136.351,262.91 C136.351,258.833 133.393,255.876 129.317,255.876" id="Fill-12" fill="#1A1919"></path>
            <polygon id="Fill-13" fill="#1A1919" points="141.705 274.59 143.642 274.59 143.642 256.322 141.705 256.322"></polygon>
            <path d="M176.044,250.016 C175.266,250.016 174.633,250.649 174.633,251.429 C174.633,252.206 175.266,252.839 176.044,252.839 C176.824,252.839 177.458,252.206 177.458,251.429 C177.458,250.649 176.824,250.016 176.044,250.016" id="Fill-14" fill="#1A1919"></path>
            <polygon id="Fill-15" fill="#1A1919" points="175.056 274.59 176.993 274.59 176.993 256.322 175.056 256.322"></polygon>
            <path d="M204.376,250.016 C203.597,250.016 202.964,250.649 202.964,251.429 C202.964,252.206 203.597,252.839 204.376,252.839 C205.155,252.839 205.789,252.206 205.789,251.429 C205.789,250.649 205.155,250.016 204.376,250.016" id="Fill-16" fill="#1A1919"></path>
            <polygon id="Fill-17" fill="#1A1919" points="203.387 274.59 205.324 274.59 205.324 256.322 203.387 256.322"></polygon>
            <polyline id="Fill-18" fill="#1A1919" points="163.715 256.322 160.936 256.322 151.087 265.844 151.087 248.495 149.151 248.495 149.151 274.59 151.087 274.59 151.087 268.52 155.241 264.52 162.02 274.59 164.368 274.59 156.656 263.126 163.715 256.322"></polyline>
            <polygon id="Fill-19" fill="#1A1919" points="167.49 274.59 169.426 274.59 169.426 248.495 167.49 248.495"></polygon>
            <path d="M190.507,255.876 C188.054,255.876 185.913,256.847 184.487,258.575 L184.487,256.322 L182.55,256.322 L182.55,274.59 L184.487,274.59 L184.487,263.628 C184.487,260.293 187.059,257.775 190.473,257.775 C194.091,257.775 196.083,259.854 196.083,263.628 L196.083,274.59 L198.02,274.59 L198.02,263.628 C198.02,258.847 195.141,255.876 190.507,255.876" id="Fill-20" fill="#1A1919"></path>
            <g id="Group-24" transform="translate(210.000000, 248.000000)">
                <mask id="mask-6" fill="white">
                    <use xlink:href="#path-5"></use>
                </mask>
                <g id="Clip-22"></g>
                <polyline id="Fill-21" fill="#1A1919" mask="url(#mask-6)" points="15.389 8.322 12.612 8.322 2.762 17.844 2.762 0.495 0.826 0.495 0.826 26.59 2.762 26.59 2.762 20.52 6.915 16.52 13.695 26.59 16.043 26.59 8.33 15.126 15.389 8.322"></polyline>
                <path d="M18.739,15.841 C19.447,12.342 22.326,9.843 25.72,9.843 C29.101,9.843 31.993,12.342 32.732,15.841 L18.739,15.841 Z M25.72,7.876 C20.693,7.876 16.602,12.195 16.602,17.507 C16.602,22.832 20.698,26.999 25.926,26.999 C30.143,26.999 33.168,24.832 34.447,20.894 L34.589,20.454 L32.56,20.454 L32.48,20.674 C31.408,23.586 29.202,25.065 25.926,25.065 C21.857,25.065 18.737,21.953 18.546,17.773 L34.834,17.773 L34.839,17.445 C34.876,14.969 33.818,12.391 32.002,10.552 C30.304,8.824 28.073,7.876 25.72,7.876 Z" id="Fill-23" fill="#1A1919" mask="url(#mask-6)"></path>
            </g>
            <path d="M256.584,255.876 C254.132,255.876 251.993,256.847 250.566,258.575 L250.566,256.322 L248.629,256.322 L248.629,274.59 L250.566,274.59 L250.566,263.628 C250.566,260.293 253.138,257.775 256.552,257.775 C260.172,257.775 262.165,259.854 262.165,263.628 L262.165,274.59 L264.097,274.59 L264.097,263.628 C264.097,258.847 261.218,255.876 256.584,255.876" id="Fill-25" fill="#1A1919"></path>
        </g>
    </g>
</svg>